# xmcd
#
# Track frame offsets:
#	150
#	15096
#	25271
#	37999
#	60707
#	73049
#	83636
#	92280
#	101715
#	116177
#	130378
#	148042
#	157567
#	179079
#	191344
#	201208
#
# Disc length: 2728 seconds
#
# Revision: 1
# Processed by: cddbd v1.5.2PL0 Copyright (c) Steve Scherf et al.
# Submitted via: audiograbber 1.83.01
#
DISCID=cd0aa610
DTITLE=Seemanns-Chor Königsbrunn - Weihancht am Leuchtturm
DYEAR=2002
DGENRE=Chorus
TTITLE0=Weihanchten auf hoher See
TTITLE1=Geht ein Schiff auf große Reise
TTITLE2=Ein Weihnachten wie's früher war
TTITLE3=Heimat, deine Sterne
TTITLE4=St. Niklas war ein Seemann
TTITLE5=Weihnachtsgitarren unter Deck
TTITLE6=Heiligabend im Hamburger Hafen
TTITLE7=Irgendwoh im Hafen
TTITLE8=Achtern auf dem Halbdeck
TTITLE9=Auf Weihnachtshafenwache
TTITLE10=Tausend Meilen noch bis Weihnacht
TTITLE11=Weihanchten im Hafen
TTITLE12=Wiehnacht an der Waterkant
TTITLE13=Weihnachtsgitarren an Board
TTITLE14=Leise kommt die Nacht
TTITLE15=Grüße an die Seeleute
EXTD=
EXTT0=
EXTT1=
EXTT2=
EXTT3=
EXTT4=
EXTT5=
EXTT6=
EXTT7=
EXTT8=
EXTT9=
EXTT10=
EXTT11=
EXTT12=
EXTT13=
EXTT14=
EXTT15=
PLAYORDER=
